# xmcd
#
# Track frame offsets:
#	150
#	18964
#	34366
#	50295
#	62557
#	76884
#	94148
#	112945
#	132102
#	150452
#	169690
#	189580
#	208038
#	228975
#	246153
#	260599
#	273000
#	288008
#	310202
#	331062
#
# Disc length: 4647 seconds
#
# Revision: 0
# Processed by: cddbd v1.5.2PL0 Copyright (c) Steve Scherf et al.
# Submitted via: dBpowerAMP V4.0
#
DISCID=02122514
DTITLE=西村由紀江 - Best of Best ~20 Songs~
DYEAR=2006
DGENRE=
TTITLE0=素敵にモーニング
TTITLE1=ひだまり
TTITLE2=風のスキップ
TTITLE3=やさしさ
TTITLE4=いつまでも
TTITLE5=Esplanade
TTITLE6=しあわせのかたち
TTITLE7=琥珀色の風景から
TTITLE8=明日のために
TTITLE9=パームトゥリーの下で見る夢は
TTITLE10=手紙
TTITLE11=誕生
TTITLE12=扉をあけよう
TTITLE13=オルゴールを聴きながら
TTITLE14=明日を信じて
TTITLE15=Objet
TTITLE16=あなたに最高のしあわせを
TTITLE17=泪壺の詩
TTITLE18=i・no・ri
TTITLE19=これからの私
EXTD=
EXTT0=
EXTT1=
EXTT2=
EXTT3=
EXTT4=
EXTT5=
EXTT6=
EXTT7=
EXTT8=
EXTT9=
EXTT10=
EXTT11=
EXTT12=
EXTT13=
EXTT14=
EXTT15=
EXTT16=
EXTT17=
EXTT18=
EXTT19=
PLAYORDER=
